<?xml version="1.0" encoding="UTF-8"?>
<svg id="Layer_1" data-name="Layer 1" xmlns="http://www.w3.org/2000/svg" viewBox="0 0 376.83 82.13">
  <defs>
    <style>
      .cls-1 {
        fill: #fff;
      }
    </style>
  </defs>
  <path class="cls-1" d="M33.79,35.31c-4.4-3.23-9.86-4.99-15.32-4.92-2.33,.03-4.77,.37-6.83,1.53-1.92,1.08-3.98,3.47-3.22,5.84s4.02,3.48,6.04,4.33c2.46,1.03,5.02,1.79,7.57,2.57s5.22,1.59,7.66,2.81c.58,.29,2.37,.94,2.55,1.63,.3,1.13-1.67,1.48-2.33,1.54-3.15,.32-6.47,.22-9.63,.03-3.37-.2-6.67-.79-9.8-2.06-.76-.31-1.64,.33-1.85,1.05-.25,.86,.3,1.54,1.05,1.85,5.36,2.18,11.23,2.35,16.95,2.24,2.52-.05,5.73,.23,7.56-1.88,1.6-1.84,1.28-4.32-.7-5.69-4.35-3.01-9.84-4.05-14.77-5.69-2.33-.77-5.04-1.64-6.99-3.19s2.78-3.42,3.81-3.64c5.75-1.22,12.11,.83,16.74,4.23,1.56,1.14,3.06-1.46,1.51-2.59h0Z"/>
  <path class="cls-1" d="M56.98,40.24c-1.89,0-3.78-.02-5.67-.01-1.53,0-3.05,.39-3.44,2.08-.63,2.76,2.1,5.11,4.39,5.97,5.93,2.22,11.19-2.64,12.71-8.07l-2.95-.4c.1,2.81,.98,5.74,3.12,7.69s5.03,2.68,7.65,1.68c1.79-.68,1.01-3.58-.8-2.89-4.21,1.6-6.84-2.88-6.96-6.48-.06-1.67-2.48-2.07-2.95-.4-.95,3.39-3.71,6.88-7.61,6.35-.79-.11-1.58-.38-2.24-.83s-.95-1.02-1.39-1.67c.03,.05-.16-.65-.17-.17-.19,.13-.18,.17,.04,.13,.13,0,.26,0,.39,0,.65,0,1.31,0,1.96,0h3.93c1.93,.01,1.93-2.99,0-2.99h0Z"/>
  <path class="cls-1" d="M75.23,40.35c.38,3.82,1.42,7.47,3.14,10.91,.75,1.5,3.31,.45,2.74-1.16-2.31-6.53,4.05-12.51,9.46-14.84,.74-.32,.91-1.41,.54-2.05-.45-.77-1.31-.86-2.05-.54-6.64,2.86-13.59,10.46-10.84,18.23l2.74-1.16c-1.46-2.93-2.4-6.13-2.73-9.4-.08-.81-.63-1.5-1.5-1.5-.75,0-1.58,.69-1.5,1.5h0Z"/>
  <path class="cls-1" d="M100,38.95c-3.18-.92-7-.43-9.57,1.77-1.23,1.05-1.86,2.74-.92,4.2,.87,1.36,2.76,1.91,4.25,2.22,6.92,1.45,13.68-2.49,16.01-9.11h-2.89c1.28,3.47,4.72,5.87,8.47,5.49,1.9-.19,1.92-3.19,0-3-2.35,.24-4.73-1-5.58-3.29-.52-1.4-2.39-1.44-2.89,0-1.47,4.17-5.4,7.11-9.84,7.22-1.12,.03-2.22-.1-3.29-.41-.3-.09-1.38-.28-1.55-.63-.14-.28,.17-.44,.5-.68,1.89-1.32,4.34-1.54,6.5-.91,1.86,.54,2.65-2.35,.8-2.89h0Z"/>
  <path class="cls-1" d="M121.43,32.64c.24,3.32,2.02,6.34,3.39,9.32,1.49,3.24,2.98,6.48,4.47,9.72,.66,1.44,2.74,.61,2.8-.76,.07-1.8,.7-3.55,1.82-4.96,.52-.66,1.15-1.25,1.85-1.71,.42-.28,.81-.57,1.33-.5,.42,.06,.92,.45,1.29,.65,1.88,1.04,3.46,2.34,5.08,3.72,1.45,1.23,3.11,2.37,5.1,2.11,1.89-.24,1.91-3.24,0-3-2.2,.28-4.1-2.3-5.7-3.5-1.7-1.27-4.4-3.44-6.67-2.95-2.07,.45-3.9,2.28-5.07,3.95-1.28,1.82-1.94,3.99-2.03,6.2l2.8-.76c-1.36-2.95-2.71-5.89-4.07-8.84-.64-1.4-1.29-2.8-1.93-4.2s-1.34-2.89-1.46-4.49c-.14-1.91-3.14-1.93-3,0h0Z"/>
  <path class="cls-1" d="M167.76,34.24c7.8-.48,15.61-.64,23.43-.47,1.93,.04,1.93-2.96,0-3-7.81-.17-15.63-.01-23.43,.47-1.92,.12-1.93,3.12,0,3h0Z"/>
  <path class="cls-1" d="M178.79,32.65c.26,3.01,1.62,5.59,2.67,8.37,.53,1.39,.92,2.84,1.14,4.32,.11,.78,.17,1.58,.18,2.37,0,.51,.14,1.35-.11,1.81-.45,.82-2.49,.45-3.24,.41-1.43-.08-2.84-.25-4.24-.53-2.94-.59-5.76-1.6-8.41-3-1.7-.9-3.22,1.69-1.51,2.59,3.07,1.63,6.36,2.81,9.78,3.43,1.66,.3,3.35,.49,5.05,.54,1.53,.05,3.28,.07,4.48-1.04s1.24-2.97,1.19-4.55c-.06-1.75-.32-3.51-.78-5.2-.88-3.2-2.91-6.16-3.19-9.51-.16-1.91-3.16-1.93-3,0h0Z"/>
  <path class="cls-1" d="M203.07,37.3c-1.33,.33-2.7-.25-4.04-.3-1.04-.04-2.16,.17-3.05,.72-2.18,1.37-2.08,4.41-.3,6.07,1.92,1.79,4.88,1.52,7.22,.85,2.65-.77,5.02-2.23,7.33-3.7l-2.05-.54c1.72,2.52,4.35,4.3,7.4,4.73,.81,.12,1.6-.2,1.85-1.05,.2-.7-.25-1.73-1.05-1.85-2.27-.32-4.3-1.44-5.61-3.36-.44-.65-1.33-1-2.05-.54-1.61,1.02-3.24,2.07-5.01,2.82-1.51,.65-3.65,1.39-5.29,.81-1.17-.41-1.61-1.76-.08-1.97,.75-.1,1.52,.09,2.25,.21,1.12,.17,2.16,.24,3.27-.03,1.87-.46,1.08-3.35-.8-2.89h0Z"/>
  <path class="cls-1" d="M241.17,29.55c-3.41-.9-6.12-3.44-9.73-3.72s-6.38,1.83-6.96,5.41c-1.17,7.28,1.05,14.78,5.54,20.54,.5,.64,1.59,.52,2.12,0,.64-.62,.5-1.49,0-2.12-3.7-4.75-5.43-10.92-4.85-16.9,.12-1.29,.33-2.8,1.55-3.51,.96-.55,2.22-.53,3.28-.31,2.94,.63,5.33,2.74,8.25,3.51,1.87,.49,2.67-2.4,.8-2.89h0Z"/>
  <path class="cls-1" d="M221.25,43.58h15.38c1.93,0,1.93-3,0-3h-15.38c-1.93,0-1.93,3,0,3h0Z"/>
  <path class="cls-1" d="M251.98,37.88c-2.54,.01-5.47,.41-6.67,3.01s.8,5.14,3.01,6.36,4.85,1.4,7.05,.21,3.58-3.53,3.45-5.98l-2.95,.4c1.52,3.76,4.47,6.61,8.32,7.91,1.83,.62,2.62-2.28,.8-2.89-2.77-.93-5.13-3.1-6.23-5.82-.28-.69-.85-1.19-1.65-1.07-.7,.11-1.34,.72-1.3,1.47,.16,2.99-3.03,4.49-5.55,3.4-.86-.37-2.72-1.55-2.27-2.7,.56-1.42,2.77-1.29,3.98-1.29,1.93,0,1.93-3.01,0-3h0Z"/>
  <path class="cls-1" d="M267.09,39.76c.79,2.57,1.77,5.07,2.91,7.51,.28,.59,1.1,.85,1.69,.69,.69-.19,1.02-.78,1.1-1.45,.17-1.33-.14-2.65-.37-3.96-.19-1.05-.23-2.09,.29-3.05s1.3-1.73,2.07-2.49c1.02-1,2.05-2,3.07-3,1.38-1.35-.74-3.47-2.12-2.12-1.07,1.05-2.16,2.09-3.22,3.15-.94,.93-1.89,1.94-2.48,3.13-.66,1.33-.84,2.71-.65,4.17s.6,2.75,.42,4.17l2.8-.76c-1.03-2.2-1.89-4.47-2.6-6.79-.57-1.84-3.46-1.05-2.89,.8h0Z"/>
  <path class="cls-1" d="M281.15,33.68c-.65,2.79-.5,5.78,.55,8.46,.53,1.35,1.18,2.82,2.42,3.66,1.37,.94,3.17,.6,4.11-.73,.47-.66,.12-1.67-.54-2.05-.75-.44-1.58-.12-2.05,.54,.05-.07,.11-.12,.17-.18l.12-.05-.13,.03c.16-.02,.18-.02,.07-.02-.09,0-.09,0,0,.01,.2,0-.17-.08-.01,0,.19,.1-.17-.11-.07-.03,.05,.04-.13-.12-.16-.15-.18-.18-.17-.18-.32-.43-.52-.85-.85-1.65-1.12-2.61-.52-1.85-.57-3.82-.14-5.66,.18-.79-.24-1.62-1.05-1.85-.76-.21-1.66,.26-1.85,1.05h0Z"/>
  <path class="cls-1" d="M284.16,26.46c1.93,0,1.93-3,0-3s-1.93,3,0,3h0Z"/>
  <path class="cls-1" d="M295.95,42.78v.35c0,.21,.04,.4,.13,.58,.06,.19,.16,.35,.31,.48,.14,.15,.3,.25,.48,.31,.18,.09,.37,.14,.58,.13l.4-.05c.25-.07,.47-.2,.66-.39l.23-.3c.14-.23,.2-.49,.2-.76v-.35c0-.21-.04-.4-.13-.58-.06-.19-.16-.35-.31-.48-.14-.15-.3-.25-.48-.31-.18-.09-.37-.14-.58-.13l-.4,.05c-.25,.07-.47,.2-.66,.39l-.23,.3c-.14,.23-.2,.49-.2,.76h0Z"/>
  <path class="cls-1" d="M319.81,35.7l-5.3-.02c-1.4,0-3.02-.15-4.14,.87-1.01,.92-1.27,2.41-.81,3.68,.51,1.38,1.73,2.22,3.07,2.69,2.6,.91,5.84,.57,8.07-1.06s3.41-4.43,2.8-7.18c-.37-1.64-3.03-1.3-2.95,.4,.27,5.27,5.3,9.2,10.46,8.35,.8-.13,1.25-1.12,1.05-1.85-.23-.85-1.04-1.18-1.85-1.05-3.19,.52-6.5-2.28-6.66-5.46l-2.95,.4c.8,3.59-3.41,5.41-6.32,4.79-.61-.13-1.58-.34-1.88-.97s.17-.6,.66-.62c2.24-.07,4.49,.01,6.73,.02,1.93,0,1.93-2.99,0-3h0Z"/>
  <path class="cls-1" d="M331.55,35.31c2.09,3.61,4.65,6.96,7.59,9.93,.87,.88,2.65,.27,2.56-1.06-.18-2.55-.54-5.16-.47-7.72,.03-.93,.18-1.96,.77-2.69,.28-.35,.61-.62,1.01-.78,.23-.09,.5-.12,.77-.06,.79,.18,1.62-.24,1.85-1.05,.21-.75-.25-1.67-1.05-1.85-3.05-.69-5.64,1.81-6.16,4.68-.28,1.51-.18,3.01-.07,4.53,.12,1.65,.23,3.29,.35,4.94l2.56-1.06c-2.77-2.8-5.15-5.92-7.12-9.32-.97-1.67-3.56-.16-2.59,1.51h0Z"/>
  <path class="cls-1" d="M352.36,29.18c-.34,4.77-.51,9.92,2.58,13.9,1.27,1.63,3.01,2.98,5.05,3.49,2.14,.53,4.68,.19,6.17-1.58,.52-.62,.61-1.51,0-2.12-.54-.54-1.6-.62-2.12,0-.97,1.14-2.59,1.11-3.9,.61-1.4-.54-2.55-1.67-3.33-2.93-2.1-3.36-1.71-7.59-1.44-11.37,.06-.81-.73-1.5-1.5-1.5-.86,0-1.44,.69-1.5,1.5h0Z"/>
  <path class="cls-1" d="M347.08,36.24c6.52,0,13.05,0,19.57,0,1.93,0,1.93-3,0-3-6.52,0-13.05,0-19.57,0-1.93,0-1.93,3,0,3h0Z"/>
</svg>